PathFileType	4	(X/Y/Z)	C:\Users\°ÂÌØÂü\Desktop\20210112\bx_n_0_501-Unnamed.trc
DataRate	CameraRate	NumFrames	NumMarkers	Units	OrigDataRate	OrigDataStartFrame	OrigNumFrames
50.00	50.00	       4	0	mm	50.00	1	       339
Frame#	Time	
		

1	0.000	-670.11963	123.24262	1851.27368				-740.32831	284.57880	1535.20850	-600.36719	109.22835	1359.58240	-680.94495	284.36951	874.36334	-644.77643	42.42139	538.00922	-686.69904	269.32806	744.59589	-719.24915	252.85181	643.41351	-706.46234	257.03760	588.99902	-578.02698	3.52458	804.27112	-755.97308	259.87860	501.20300				-546.61743	-13.57056	164.74037				-600.64948	38.39848	166.17007	-676.36719	59.30421	157.41246	-795.49091	180.42735	184.65356	-761.54108	224.02431	204.96368	-588.87061	184.61299	174.45854	-882.75946	295.96274	144.50542	-546.65997	214.33144	165.43314	-640.39063	274.43796	159.38176	-602.32642	275.01944	159.66725	-528.15442	303.96283	146.35419	-691.67291	-69.97935	1550.98145	-798.57227	88.34834	1057.99438	-586.76990	215.53325	794.64130	-794.42126	33.63062	174.69156	-794.42126	33.63062	174.69156	-742.66095	-49.26670	487.58313	-876.12219	-78.89765	141.41621	-724.17487	71.52172	215.21910	-754.93805	-21.10164	206.95598	-690.93762	-35.73257	614.63062	-699.06903	-33.04401	566.80304	-719.02344	142.84624	217.82487	-678.47070	154.19696	158.17119	-599.83777	-61.24508	160.31245	-641.44867	-58.85337	164.01770	-667.98193	-60.95828	756.31097	-517.69672	-72.81759	143.20711							-589.49298	-4.71794	1056.20593	-604.48041	241.52664	1067.22473	-656.05170	19.50297	519.15344	-671.49115	196.87280	534.45599	-648.25830	-73.10545	871.69305	
2	0.020	-669.85980	123.25108	1851.19702	-686.80121	269.27219	744.73303	-740.05884	284.64764	1535.19543	-600.10022	109.11359	1359.46765	-680.86578	284.60501	874.29889	-644.87311	42.30821	537.93103				-719.24567	252.52417	643.11243	-706.46234	257.03760	588.99902	-577.98279	3.43789	804.39301	-756.14850	260.02142	501.19370	-546.80682	214.23822	165.60518	-546.79614	-13.43489	164.73128				-600.67657	38.44273	166.08395	-676.90350	58.70039	156.73378	-795.57526	180.56731	184.53658	-761.56586	224.14093	205.05028	-588.86475	184.43225	174.28749	-882.74536	296.02060	144.44994	-589.56195	184.14983	174.47200	-640.57935	274.38858	159.51448	-602.29474	274.78690	159.37489	-528.38684	304.23920	146.33282	-691.42328	-69.76672	1550.86829	-798.48676	88.43256	1058.10413	-586.62561	215.64943	794.61914				-794.27277	33.77128	174.93124	-742.51184	-49.55083	487.68161	-876.12219	-78.89765	141.41621	-724.19806	71.75845	215.19846	-755.22156	-20.99445	206.69118	-691.23157	-35.56731	614.21936	-699.00720	-33.04421	567.13208	-719.15436	142.89206	217.67596				-599.57910	-61.49154	160.68010	-641.39130	-58.84265	164.13084	-668.02271	-60.91166	756.22229	-517.67474	-72.89974	143.29080							-589.38806	-4.69908	1056.22083	-604.54645	241.53369	1067.00891	-656.05170	19.50297	519.15344	-671.56946	196.92821	534.51392	-648.12610	-73.27695	871.92590	
3	0.040	-669.35413	123.27214	1851.13794	-686.69904	269.32806	744.59589	-739.77411	284.63791	1535.14685	-599.80121	108.73703	1359.63147	-680.94086	284.72440	874.20251	-644.95038	42.21770	537.70239	-678.47070	154.19696	158.17119	-719.29828	252.84441	643.25024	-706.60382	257.13956	589.04095	-577.97040	3.41486	804.38629	-755.97308	259.87860	501.20300	-546.85034	214.14238	165.39702	-546.65631	-13.31978	164.86134				-600.55646	38.43315	166.14557	-677.08978	58.60966	156.80043	-795.64069	180.40361	184.60686	-761.60736	224.23199	205.00119	-588.86475	184.43225	174.28749	-882.55072	296.24280	144.74985				-640.63293	274.35590	159.58887	-602.13733	274.86221	159.64864	-528.20984	304.20206	146.31906	-691.12543	-69.67992	1550.79688	-798.27844	88.40964	1058.10449	-586.57709	215.91010	794.57617				-794.36334	33.61810	174.98911	-742.51453	-49.41709	487.64142	-876.12219	-78.89765	141.41621	-724.17487	71.52172	215.21910	-754.87402	-21.18866	206.88222	-691.20685	-35.58512	614.25104	-699.07343	-32.97185	567.02197	-719.16376	143.00819	217.53072				-599.64240	-61.42886	160.33257	-641.72388	-59.08825	164.04443	-667.91516	-61.18424	756.18964	-517.69672	-72.81759	143.20711							-589.09839	-4.54831	1056.10571	-604.44562	241.49986	1066.93201	-656.05170	19.50297	519.15344	-671.55444	196.97162	534.32385	-648.22211	-73.38021	871.85645	
4	0.060	-668.88342	123.30424	1851.15222	-686.69904	269.32806	744.59589	-739.51788	284.74161	1535.17908	-599.43878	109.13062	1359.46643	-680.82544	284.79901	874.32825	-644.99280	42.26574	537.73041	-678.47070	154.19696	158.17119	-719.21045	252.84059	643.29254	-706.46234	257.03760	588.99902	-578.06818	3.31496	804.27826	-756.04633	260.16052	501.38910	-546.69519	214.42087	165.45706	-546.51721	-13.72620	164.51401				-600.45129	38.36213	166.24448	-676.05762	59.27760	157.84625	-795.54761	180.37245	184.59534	-761.56738	224.31340	205.00462	-588.93011	184.45612	174.22061	-882.68158	296.13046	144.56700				-640.48676	274.36612	159.33282	-602.24548	274.52090	159.50922	-528.30585	304.11691	146.33821	-690.92297	-69.71475	1550.70581	-798.18018	88.45285	1058.16431	-586.64545	215.71545	794.54028				-794.38257	33.76842	174.90237	-742.79730	-49.38895	487.73123	-876.31458	-78.92422	141.43286	-724.17487	71.52172	215.21910	-754.96130	-21.03811	206.95123	-691.52374	-35.96762	614.70575	-699.32550	-33.03316	567.30853	-719.08533	143.00246	217.43449				-599.54211	-61.53885	160.50551	-641.78088	-58.96716	163.88564	-667.91516	-61.18424	756.18964	-517.69672	-72.81759	143.20711							-588.93378	-4.56428	1056.07874	-604.35236	241.43633	1066.91248	-656.14972	19.50974	519.22552	-671.63403	197.12581	534.38947	-648.18707	-73.20694	871.79077	
